<?xml version="1.0" encoding="utf-8"?>
<!-- Generator: Adobe Illustrator 24.0.2, SVG Export Plug-In . SVG Version: 6.00 Build 0)  -->
<svg version="1.1" id="Capa_1" xmlns="http://www.w3.org/2000/svg" xmlns:xlink="http://www.w3.org/1999/xlink" x="0px" y="0px"
	 viewBox="0 0 414.1 472.7" style="enable-background:new 0 0 414.1 472.7;" xml:space="preserve">
<style type="text/css">
	.st0{fill:#173F5C;}
	.st1{fill:#259E79;}
	.st2{fill:#143A68;}
	.st3{fill:#586976;}
	.st4{font-family:'SegoeUI';}
	.st5{font-size:23.0407px;}
</style>
<g>
	<path class="st0" d="M225.2,85.5c0-7.8,0-15.7,0-23.6c-0.6-0.1-1.2-0.3-1.7-0.4c-2,2.5-4,4.9-6.2,7.5c-1-3.2-1.9-6.3-3.3-11
		c-4.1,4.1-7.9,6.9-10.4,10.6c-8.5,12.6-15.6,26.1-27,36.6c-3.9,3.6-6.2,9.2-8.2,14.3c-7.8,19.4-19.9,35.7-34.3,50.8
		c-8.8,9.2-15.9,19.9-23.9,29.9c-1,1.2-2.9,2.4-4.4,2.5c-6.2,0.3-12.4,0.2-18.7,0.1c-8.4-0.2-14.7-6.5-14.7-14.9
		c-0.1-26.1-0.1-52.2,0-78.3c0-9.2,5.9-15,15.5-15c19.5-0.1,39.1-0.1,58.6-0.1c1.9,0,3.8,0,6.5,0c0-2,0-3.6,0-5.3
		c0-20.9,0-41.8,0-62.8c0-11.8,5-16.8,16.6-16.8c24.6,0,49.1,0,73.7,0c11.9,0,16.9,5.1,16.9,17.1c0,20.7,0,41.5,0,62.2
		c0,1.7,0,3.4,0,5.6c2.7,0,4.9,0,7.2,0c18.9,0,37.7,0,56.6,0c11,0,16.5,5.6,16.5,16.6c0,24.9,0,49.8,0,74.7c0,11.7-5.4,17-17.2,17
		c-20.7,0-41.5,0-63,0c0,2.1,0,4,0,5.8c0,21.6,0,43.2,0,64.8c0,10.9-5.3,16.2-16.2,16.2c-4.1,0-8.2,0-12.6,0
		c-1-12.6-4.9-23.7-10.6-34.3c-3.6-6.7-0.7-13.4,6.3-16.2c16.8-6.7,23.6-26,15.4-43.9c-1.6-3.6-3.5-7.2-4.5-11
		c-3.2-12.4,4.8-21.3,17.6-19.8c1.4,0.2,2.7,0.5,4.1,0.5c16.9,0.8,26.5-5.6,32.4-21.6c0.8-2.3,1.9-4.4,2.8-6.7
		c2.1-5.7,1.2-7.8-4.5-9.9c-7.6-2.8-15.3-5.4-22.9-8.1c-5.4-2-8.6-5.7-10.2-11.5c-2.2-8.4-9-12.9-16.4-16.2
		C236.3,88.9,231.4,87.6,225.2,85.5z"/>
	<path class="st1" d="M225,289.4c-25.6,0-51,0-77.4,0c-0.2-11-0.6-22-0.6-33c0-16.9,2.9-33.3,9.5-49c4.9-11.5,11.8-21.4,22.8-28
		c1.4-0.8,2.3-2.5,3.3-3.8c3.7-5,7.3-10,11.2-14.9c2-2.5,4.6-4.6,6.3,0.5c1.7-0.8,3-1.5,5.4-2.6c-0.4,6.8-0.7,12.9-1,19
		c2.9,1.2,5.6,2.2,8.2,3.6c5,2.7,9.4,6.2,10.5,12.1c1,5.3,3.9,8.8,8.4,11c4.6,2.2,4.9,5.5,3.5,9.8c-4,12.3-6.7,14.5-19.4,15.4
		c-6.1,0.4-9,3.3-9.6,9.4c-0.6,6.3,0.9,11.8,5.3,16.7c7.9,8.6,13,18.7,13.6,30.6C225.3,287.2,225.1,288.2,225,289.4z"/>
</g>
<g>
	<path class="st1" d="M213.3,393.8c-5.4,0-10.1,0-15.4,0c0-25.9,0-51.8,0-77.8c5,0,9.9,0,15.3,0c0,10.4,0,20.5,0,31
		c11.9,0,23.3,0,35.2,0c0-10.4,0-20.7,0-31c5.4,0,10.1,0,15.1,0c0,26,0,51.7,0,77.8c-4.8,0-9.5,0-14.9,0c0-10.6,0-21.2,0-32.1
		c-12,0-23.3,0-35.3,0C213.3,372.5,213.3,383,213.3,393.8z"/>
	<path class="st1" d="M358.8,388.5c-0.3,1.8-0.5,3.3-0.7,5.2c-4.6,0-9,0-13.8,0c0-26.3,0-52.5,0-79c4.7,0,9.3,0,14.2,0
		c0,9,0,18.1,0,27.7c1-0.3,1.7-0.4,2.1-0.7c17.3-12.7,39.4-3,42,18.5c0.9,7.2,0.3,14.3-3.1,20.9c-7.6,15-26.3,18.8-39.3,8.1
		C359.9,389,359.4,388.8,358.8,388.5z M388.1,365.8c0.2-9.9-6-17.2-14.6-17.3c-9.1-0.1-14.9,6.3-15.1,16.6c0,1.7,0,3.3,0.2,5
		c0.9,7.6,5.9,12.3,13.5,12.6C381.6,383.1,387.9,376.4,388.1,365.8z"/>
	<path class="st2" d="M87.6,315.8c-6.3,15.9-12.3,31-18.2,46.1c-3.8,9.6-7.7,19.1-11.4,28.7c-1,2.6-2.3,3.5-5.1,3.5
		c-12.5,0.1-12.4,0.1-16.8-11.2c-8.1-20.9-16.4-41.7-24.6-62.6c-0.5-1.2-0.9-2.4-1.7-4.5c5.2,0,10-0.2,14.7,0.2
		c1.2,0.1,2.7,2.1,3.3,3.5c6.2,16.3,12.2,32.7,18.3,49c0.7,2,1.5,4,2.7,6.9c3.2-8.5,6.2-16.2,9.1-23.9c4-10.6,8.1-21.1,11.8-31.8
		c1.1-3.1,2.7-4.1,5.8-3.9C79.1,315.9,82.9,315.8,87.6,315.8z"/>
	<path class="st2" d="M137.6,385.3c-9.7,10.8-27.8,13.4-40.2,5.6c-11.6-7.3-16.3-23.6-10.5-37.2c5.6-13.3,19.1-20.2,32.9-16.9
		c14,3.4,21.2,14.8,20,32.4c-13.4,0-27,0-40.5,0c1.6,14.8,15.5,18.1,31.1,7.5C132.6,379.5,135.1,382.4,137.6,385.3z M125.6,359.6
		c-0.2-6.6-4.9-11.4-11.6-11.9c-7.5-0.6-13.4,4.1-14.8,11.9C108.1,359.6,116.9,359.6,125.6,359.6z"/>
	<path class="st1" d="M330.1,393.8c-4.5,0-8.6,0-13.1,0c-0.3-1.9-0.6-3.8-1-6.4c-5.3,5.7-11.3,8.4-18.6,8
		c-10.7-0.5-18.7-7.2-19.3-17.8c-0.7-13.1-0.2-26.2-0.2-39.7c4.4,0,8.9,0,13.9,0c0,8.9,0,17.7,0,26.4c0,2.3-0.1,4.7,0.2,7
		c0.9,7.8,4.9,11.5,11.9,11.1c7.1-0.4,11.6-4.9,11.7-12.3c0.2-10.6,0-21.3,0-32.3c4.8,0,9.4,0,14.4,0
		C330.1,356.3,330.1,374.8,330.1,393.8z"/>
	<path class="st2" d="M154.2,349.3c-2.5,0-5.2,0-8.2,0c0-3.9,0-7.6,0-11.7c2.7,0,5.5,0,8.8,0c0-5.2,0-10.1,0-15.5
		c5.1,0,9.6,0,14.7,0c0,4.9,0,9.8,0,15.3c5.3,0,10,0,15,0c0,4.1,0,7.7,0,11.7c-4.8,0-9.6,0-14.9,0c0,9.4-0.2,18.3,0.1,27.2
		c0.2,4.5,3.5,6.1,7.7,6c2.1,0,4.2-0.6,6.3-0.8c0.2,0.2,0.4,0.2,0.4,0.4c3.5,10.8,1.5,13.5-9.9,13.3c-12.3-0.2-18.8-7-19.1-20
		c-0.2-8.3-0.1-16.6-0.2-24.9C155,350.1,154.8,350,154.2,349.3z"/>
</g>
<text transform="matrix(1 0 0 1 35.8966 457.874)" class="st3 st4 st5">- Conectamos salud y bienestar  -</text>
</svg>
